<svg xmlns="http://www.w3.org/2000/svg" width="512" height="512" viewBox="0 0 512 512" role="img" aria-label="Mapa Rede Verde">
  <defs>
    <linearGradient id="bg" x1="0" y1="0" x2="1" y2="1">
      <stop offset="0%" stop-color="#2a6a49"/>
      <stop offset="100%" stop-color="#163b28"/>
    </linearGradient>
    <linearGradient id="leaf" x1="0" y1="0" x2="1" y2="1">
      <stop offset="0%" stop-color="#c9de90"/>
      <stop offset="100%" stop-color="#6ea45c"/>
    </linearGradient>
  </defs>

  <rect width="512" height="512" rx="108" fill="url(#bg)"/>

  <g opacity="0.22" fill="none" stroke="#ffffff" stroke-width="18">
    <path d="M90 156c66-24 123-24 180 0s114 24 180 0"/>
    <path d="M90 256c66-24 123-24 180 0s114 24 180 0"/>
    <path d="M90 356c66-24 123-24 180 0s114 24 180 0"/>
  </g>

  <path d="M256 102c-80 0-144 64-144 144 0 98 99 174 131 209 7 8 18 8 25 0 32-35 131-111 131-209 0-80-64-144-143-144z" fill="#ffffff"/>
  <circle cx="256" cy="246" r="82" fill="#eaf4e7"/>
  <path d="M255 292c45-17 67-52 66-104-52-2-87 20-104 64-9 22-10 41-4 57 16 7 36 8 58-1z" fill="url(#leaf)"/>
  <path d="M213 276c30-14 54-37 71-69" stroke="#2b6443" stroke-linecap="round" stroke-width="11"/>
</svg>
